<svg width="206" height="42" viewBox="0 0 206 42" fill="none" xmlns="http://www.w3.org/2000/svg">
<path d="M9.98848 15.6128H4.02176L2.64821 20.3588H0L5.76892 1.60547H8.29626L14.0102 20.3588H11.362L9.98848 15.6128ZM4.62613 13.5474H9.3951L7.05457 5.36273H6.97765L4.62613 13.5474Z" fill="white"/>
<path d="M15.9556 13.5576C15.8728 11.6947 16.2901 9.84361 17.1644 8.1964C17.4852 7.57539 17.973 7.05618 18.5728 6.69713C19.1726 6.33809 19.8607 6.15344 20.5598 6.16396C21.1669 6.15665 21.7654 6.30814 22.296 6.60341C22.8293 6.91429 23.2812 7.34729 23.6146 7.86681V0.275391H26.2188V20.3581H23.9442L23.7464 18.7541C23.4197 19.3248 22.955 19.8045 22.3948 20.1493C21.8306 20.4735 21.1884 20.6369 20.5378 20.6217C19.8622 20.6417 19.1934 20.4811 18.6005 20.1567C18.0075 19.8323 17.5118 19.3557 17.1644 18.776C16.294 17.2788 15.8743 15.5622 15.9556 13.8323V13.5576ZM18.5709 13.8323C18.5166 15.0264 18.7346 16.2173 19.2082 17.3149C19.3692 17.7062 19.646 18.0391 20.0014 18.2688C20.3569 18.4985 20.7741 18.6142 21.1971 18.6003C21.7191 18.6167 22.231 18.4538 22.6476 18.1389C23.075 17.796 23.4078 17.3498 23.6146 16.8425V10.064C23.4023 9.54108 23.0713 9.07468 22.6476 8.70176C22.2493 8.37177 21.7473 8.19281 21.2301 8.1964C20.781 8.19891 20.3443 8.34387 19.9829 8.61041C19.6216 8.87695 19.3541 9.2513 19.2192 9.67952C18.7456 10.9158 18.5251 12.2346 18.5709 13.5576V13.8323Z" fill="white"/>
<path d="M33.9648 16.1724L34.1846 17.2491H34.2615L34.4813 16.1724L36.8438 6.42773H39.536L35.3714 20.3582H33.0638L28.8662 6.42773H31.5694L33.9648 16.1724Z" fill="white"/>
<path d="M41.3605 12.5142C41.3123 10.8668 41.8409 9.25424 42.855 7.9549C43.352 7.39145 43.9632 6.94018 44.6481 6.63107C45.333 6.32197 46.0758 6.16211 46.8273 6.16211C47.5787 6.16211 48.3215 6.32197 49.0064 6.63107C49.6913 6.94018 50.3026 7.39145 50.7996 7.9549C51.8055 9.2562 52.3192 10.871 52.2501 12.5142V14.2829C52.3211 15.9263 51.8072 17.5418 50.7996 18.8422C50.325 19.4263 49.7197 19.8908 49.0326 20.1981C48.3454 20.5053 47.5957 20.6467 46.8438 20.6109C46.0879 20.6489 45.3336 20.5098 44.641 20.2046C43.9485 19.8994 43.3369 19.4366 42.855 18.8532C41.8334 17.5536 41.3041 15.9348 41.3605 14.2829V12.5142ZM43.9538 14.2829C43.9137 15.3698 44.156 16.4486 44.6571 17.414C44.8693 17.7862 45.1763 18.0957 45.5468 18.3109C45.9174 18.5262 46.3383 18.6396 46.7668 18.6396C47.1954 18.6396 47.6163 18.5262 47.9869 18.3109C48.3574 18.0957 48.6644 17.7862 48.8766 17.414C49.3776 16.4486 49.6199 15.3698 49.5799 14.2829V12.5032C49.6209 11.421 49.3825 10.3464 48.8876 9.3831C48.6754 9.01086 48.3684 8.70139 47.9979 8.48613C47.6273 8.27087 47.2064 8.15748 46.7778 8.15748C46.3493 8.15748 45.9283 8.27087 45.5578 8.48613C45.1872 8.70139 44.8803 9.01086 44.6681 9.3831C44.1674 10.3451 43.9215 11.4192 43.9538 12.5032V14.2829Z" fill="white"/>
<path d="M59.0625 13.9531H57.9526V20.358H55.3594V0.275391H57.9526V11.9756H59.0295L62.1063 6.42763H65.1501L61.1173 12.7117L65.7324 20.358H62.6996L59.0625 13.9531Z" fill="white"/>
<path d="M74.9742 20.3574C74.8779 20.0512 74.8008 19.7393 74.7434 19.4235C74.6815 19.1192 74.6411 18.8108 74.6226 18.5007C74.2572 19.1101 73.762 19.6315 73.1721 20.0278C72.5984 20.417 71.9205 20.6238 71.2272 20.621C70.7134 20.651 70.1993 20.5681 69.7209 20.3783C69.2426 20.1886 68.8115 19.8964 68.4581 19.5224C67.7693 18.687 67.4133 17.6269 67.4581 16.5452C67.4312 15.9523 67.5399 15.3611 67.776 14.8166C68.0121 14.2721 68.3694 13.7887 68.8207 13.4031C69.9256 12.5969 71.2802 12.2077 72.6447 12.3045H74.5786V10.8324C74.6197 10.1289 74.4223 9.43222 74.0182 8.85488C73.8239 8.61817 73.5761 8.43099 73.2953 8.30875C73.0145 8.18651 72.7086 8.1327 72.4029 8.15177C72.1205 8.14011 71.839 8.19121 71.5787 8.30139C71.3183 8.41158 71.0857 8.57809 70.8975 8.78896C70.5085 9.23065 70.3039 9.80482 70.3261 10.3929H67.8317V10.316C67.8155 9.77205 67.9228 9.23146 68.1455 8.73485C68.3681 8.23824 68.7004 7.79851 69.1174 7.44865C70.0736 6.58935 71.3269 6.13618 72.6117 6.18525C73.8278 6.14466 75.0114 6.58249 75.9082 7.40471C76.352 7.86185 76.6948 8.4071 76.9144 9.00515C77.134 9.60319 77.2254 10.2407 77.1829 10.8763V17.3362C77.1819 17.8614 77.215 18.3862 77.2818 18.9072C77.35 19.4054 77.4565 19.8975 77.6004 20.3793L74.9742 20.3574ZM71.8205 18.6765C72.4186 18.6781 73.0009 18.4853 73.4798 18.1272C73.9649 17.7879 74.3455 17.3199 74.5786 16.7759V13.8755H72.6007C72.2534 13.857 71.9063 13.9164 71.585 14.0495C71.2636 14.1826 70.9761 14.3859 70.7437 14.6446C70.2919 15.1686 70.0528 15.8427 70.0734 16.5342C70.0493 17.0792 70.2079 17.6166 70.5239 18.0613C70.675 18.2601 70.8716 18.4197 71.0973 18.5268C71.3229 18.6338 71.5709 18.6852 71.8205 18.6765Z" fill="white"/>
<path d="M84.1712 2.9668V6.42743H86.3689V8.29507H84.1712V16.5786C84.1222 17.1116 84.2331 17.6471 84.4899 18.1167C84.5781 18.2585 84.7012 18.3754 84.8474 18.4561C84.9936 18.5369 85.158 18.5789 85.325 18.5781C85.5153 18.59 85.7062 18.59 85.8964 18.5781L86.5228 18.4572L86.8085 20.226C86.4896 20.3551 86.1582 20.4509 85.8195 20.5117C85.4579 20.5856 85.0897 20.6224 84.7207 20.6215C84.2878 20.6468 83.8549 20.5728 83.4549 20.4053C83.055 20.2377 82.6987 19.981 82.4131 19.6547C81.7978 18.7527 81.5107 17.6668 81.6 16.5786V8.29507H79.7539V6.42743H81.567V2.9668H84.1712Z" fill="white"/>
<path d="M90.2701 20.3579V8.27315H88.457V6.42747H90.2701V4.99928C90.2253 4.32927 90.3139 3.65703 90.5309 3.0215C90.7478 2.38598 91.0887 1.79981 91.5338 1.29695C91.9941 0.849842 92.5426 0.503626 93.1442 0.280411C93.7459 0.0571975 94.3875 -0.0381069 95.0281 0.000585383C95.5689 0.00198438 96.1075 0.0683776 96.6324 0.198336C97.2221 0.35361 97.8019 0.544384 98.3686 0.769615L97.973 2.80205C97.561 2.6178 97.1347 2.46717 96.6984 2.35162C96.2094 2.23352 95.7067 2.18179 95.2039 2.19781C94.8772 2.17217 94.5489 2.22341 94.2455 2.34741C93.9421 2.47142 93.672 2.66475 93.4568 2.91191C93.0319 3.52959 92.8304 4.27363 92.8854 5.02125V6.44945H95.2479V8.31709H92.8854V20.4018L90.2701 20.3579ZM99.6103 20.3579H96.995V6.42747H99.6103V20.3579Z" fill="white"/>
<path d="M109.433 8.62463L108.214 8.55871C107.716 8.54353 107.232 8.7206 106.862 9.05309C106.476 9.43232 106.196 9.90566 106.049 10.4264V20.3139H103.434V6.4274H105.818L106.016 8.52576C106.24 7.86848 106.616 7.27363 107.115 6.78995C107.569 6.37302 108.168 6.14856 108.785 6.16374C108.961 6.15375 109.137 6.15375 109.312 6.16374C109.455 6.18543 109.595 6.22226 109.73 6.2736L109.433 8.62463Z" fill="white"/>
<path d="M114.632 6.42672L114.774 8.31634C115.112 7.67264 115.608 7.1247 116.214 6.72335C116.826 6.3415 117.536 6.14676 118.258 6.16305C118.97 6.14852 119.666 6.37285 120.236 6.80025C120.842 7.32148 121.275 8.01513 121.477 8.78874C121.791 8.04522 122.286 7.39191 122.917 6.88814C123.551 6.41956 124.326 6.17949 125.115 6.207C125.667 6.19643 126.212 6.32469 126.702 6.57999C127.192 6.83529 127.609 7.20946 127.917 7.66815C128.692 9.01694 129.047 10.5659 128.938 12.1175V20.4011H126.323V12.0846C126.403 11.0564 126.222 10.0247 125.796 9.08537C125.638 8.79766 125.4 8.5611 125.112 8.40346C124.824 8.24583 124.497 8.17368 124.17 8.19549C123.887 8.19175 123.608 8.25094 123.351 8.36876C123.094 8.48658 122.867 8.66007 122.686 8.87663C122.255 9.39414 121.957 10.0088 121.818 10.6674C121.818 10.6015 121.818 10.6674 121.818 10.997C121.818 11.3265 121.818 11.4913 121.818 11.6232V20.4121H119.225V12.0846C119.299 11.0651 119.11 10.0437 118.675 9.11833C118.523 8.83729 118.295 8.60421 118.017 8.44512C117.74 8.28604 117.424 8.20722 117.104 8.21746C116.6 8.20657 116.107 8.36949 115.708 8.67888C115.323 9.00107 115.028 9.41738 114.851 9.88735V20.3132H112.247V6.42672H114.632Z" fill="white"/>
<path d="M139.64 20.3574C139.544 20.0512 139.467 19.7393 139.41 19.4235C139.348 19.1192 139.307 18.8108 139.289 18.5007C138.923 19.1101 138.428 19.6315 137.838 20.0278C137.266 20.4202 136.587 20.6273 135.893 20.621C135.38 20.651 134.865 20.5681 134.387 20.3783C133.909 20.1886 133.478 19.8964 133.124 19.5224C132.434 18.6885 132.081 17.6263 132.135 16.5452C132.107 15.9532 132.214 15.3626 132.448 14.8181C132.682 14.2737 133.038 13.7898 133.487 13.4031C134.593 12.5986 135.947 12.2096 137.311 12.3045H139.256V10.8324C139.298 10.1272 139.096 9.42889 138.684 8.85488C138.485 8.64456 138.245 8.47591 137.979 8.35867C137.714 8.24143 137.428 8.17791 137.138 8.17178C136.848 8.16565 136.559 8.21703 136.289 8.32296C136.019 8.42889 135.772 8.58727 135.564 8.78896C135.175 9.23065 134.97 9.80482 134.992 10.3929H132.509V10.316C132.493 9.77205 132.6 9.23146 132.823 8.73485C133.045 8.23824 133.378 7.79851 133.795 7.44865C134.751 6.58935 136.004 6.13618 137.289 6.18525C138.505 6.14466 139.689 6.58249 140.585 7.40471C141.031 7.86091 141.376 8.40574 141.598 9.00383C141.819 9.60191 141.912 10.2399 141.871 10.8763V17.3362C141.872 17.861 141.901 18.3855 141.959 18.9072C142.027 19.4054 142.134 19.8975 142.278 20.3793L139.64 20.3574ZM136.487 18.6765C137.088 18.6765 137.673 18.484 138.157 18.1272C138.638 17.7834 139.017 17.3167 139.256 16.7759V13.8755H137.267C136.92 13.8586 136.573 13.9187 136.252 14.0517C135.931 14.1847 135.643 14.3871 135.41 14.6446C134.966 15.1723 134.731 15.8448 134.751 16.5342C134.721 17.0798 134.88 17.6189 135.201 18.0613C135.349 18.2606 135.544 18.4208 135.768 18.528C135.992 18.6352 136.239 18.6862 136.487 18.6765Z" fill="white"/>
<path d="M150.541 20.6214C149.791 20.6509 149.044 20.5111 148.356 20.2125C147.667 19.9139 147.054 19.4642 146.563 18.8966C145.543 17.6649 145.011 16.1007 145.069 14.5021V12.4477C145.01 10.821 145.528 9.22588 146.53 7.94339C146.97 7.37796 147.536 6.92276 148.183 6.61384C148.829 6.30493 149.539 6.15079 150.255 6.16364C150.937 6.1365 151.615 6.2683 152.237 6.54859C152.859 6.82889 153.407 7.25 153.838 7.7786C154.753 9.05425 155.203 10.6055 155.112 12.1731V13.9748H147.618V14.5241C147.577 15.5769 147.852 16.6179 148.409 17.5123C148.655 17.8919 148.997 18.1997 149.401 18.4043C149.804 18.6088 150.254 18.7029 150.706 18.6768C151.339 18.6952 151.968 18.5791 152.552 18.3363C153.097 18.0898 153.595 17.7516 154.025 17.3365L154.849 18.9625C154.357 19.4957 153.753 19.9123 153.08 20.1819C152.272 20.4999 151.408 20.6495 150.541 20.6214ZM150.255 8.15213C149.88 8.15239 149.512 8.25479 149.191 8.44834C148.87 8.64189 148.607 8.91928 148.431 9.25074C147.947 10.106 147.686 11.0695 147.673 12.0522H152.585V11.5359C152.622 10.6831 152.417 9.83728 151.992 9.09694C151.813 8.7962 151.556 8.54951 151.249 8.38314C150.941 8.21676 150.594 8.13692 150.244 8.15213H150.255Z" fill="white"/>
<path d="M161.53 2.9668V6.42743H163.728V8.29507H161.53V16.5786C161.481 17.1116 161.592 17.6471 161.849 18.1167C161.938 18.2578 162.061 18.3741 162.207 18.4547C162.353 18.5354 162.517 18.5779 162.684 18.5781C162.874 18.59 163.065 18.59 163.255 18.5781L163.882 18.4573L164.156 20.259C163.837 20.3881 163.506 20.4838 163.167 20.5446C162.806 20.6188 162.438 20.6556 162.069 20.6545C161.636 20.6789 161.203 20.6046 160.803 20.4371C160.404 20.2696 160.047 20.0133 159.761 19.6877C159.146 18.7857 158.859 17.6998 158.948 16.6116V8.29507H157.135V6.42743H158.948V2.9668H161.53Z" fill="white"/>
<path d="M4.25269 22.9844H1.64844V41.7267H4.25269V22.9844Z" fill="white"/>
<path d="M14.9005 38.232C14.9072 37.9803 14.863 37.7299 14.7705 37.4958C14.6779 37.2617 14.539 37.0488 14.3621 36.8697C13.772 36.3409 13.0906 35.9239 12.3512 35.6392C11.191 35.2363 10.112 34.6299 9.16455 33.8485C8.82373 33.5404 8.55461 33.1614 8.37615 32.7381C8.19769 32.3149 8.11422 31.8576 8.13164 31.3986C8.12553 30.8773 8.2358 30.3613 8.45441 29.8881C8.67301 29.4149 8.99445 28.9963 9.39531 28.663C10.3205 27.902 11.4949 27.5106 12.6918 27.5644C13.9489 27.5025 15.18 27.9364 16.1202 28.7729C16.532 29.1591 16.8545 29.6305 17.0652 30.1542C17.2758 30.678 17.3696 31.2414 17.3399 31.8051V31.882H14.8346C14.8579 31.2606 14.6636 30.6506 14.2852 30.1571C14.1022 29.9237 13.8662 29.7371 13.5968 29.6129C13.3273 29.4887 13.0322 29.4305 12.7358 29.443C12.4574 29.4274 12.1786 29.468 11.9162 29.5623C11.6538 29.6567 11.4131 29.803 11.2084 29.9924C11.0336 30.1622 10.8949 30.3655 10.8005 30.5901C10.7061 30.8147 10.658 31.0561 10.659 31.2997C10.65 31.5311 10.6872 31.7619 10.7683 31.9788C10.8495 32.1957 10.9729 32.3943 11.1315 32.5631C11.7584 33.0574 12.4497 33.4639 13.1863 33.7716C14.3932 34.1384 15.5141 34.7436 16.4828 35.5513C16.8378 35.8752 17.1194 36.271 17.3089 36.7125C17.4984 37.154 17.5914 37.6308 17.5817 38.1111C17.595 38.6473 17.4839 39.1793 17.257 39.6654C17.0301 40.1515 16.6937 40.5784 16.2741 40.9126C15.2906 41.6761 14.0677 42.0655 12.8237 42.0112C12.1371 42.0561 11.4487 41.9582 10.8019 41.7238C10.1551 41.4893 9.56388 41.1233 9.06566 40.6489C8.65426 40.2626 8.32905 39.7938 8.1113 39.2732C7.89354 38.7525 7.78814 38.1918 7.80199 37.6277V37.5508H10.2634C10.236 37.9164 10.2865 38.2837 10.4115 38.6283C10.5365 38.973 10.7332 39.2872 10.9886 39.5503C11.4718 39.9522 12.0856 40.1633 12.7138 40.1435C13.2943 40.1546 13.8569 39.9422 14.2852 39.5503C14.4765 39.3877 14.6305 39.1857 14.7366 38.9582C14.8428 38.7307 14.8987 38.483 14.9005 38.232Z" fill="white"/>
<path d="M27.6362 41.7477C27.5482 41.4291 27.4713 41.1215 27.4054 40.8138C27.3471 40.5092 27.3104 40.2008 27.2955 39.891C26.9235 40.5019 26.4252 41.0263 25.8341 41.4291C25.2619 41.8215 24.5829 42.0286 23.8891 42.0223C23.377 42.0521 22.8645 41.9692 22.388 41.7794C21.9114 41.5895 21.4823 41.2974 21.131 40.9237C20.4308 40.0947 20.0732 39.0299 20.1311 37.9465C20.1016 37.3549 20.2093 36.7645 20.4457 36.2214C20.682 35.6783 21.0407 35.1971 21.4936 34.8154C22.5921 34.0047 23.9451 33.6149 25.3066 33.7168H27.2516V32.2117C27.2944 31.5081 27.0968 30.8108 26.6912 30.2342C26.4962 29.9975 26.2486 29.8097 25.9682 29.6857C25.6877 29.5617 25.3821 29.505 25.0759 29.5201C24.7918 29.5083 24.5086 29.5593 24.2465 29.6695C23.9844 29.7796 23.7498 29.9462 23.5595 30.1573C23.1762 30.6023 22.9724 31.1742 22.9881 31.7613H20.5047V31.6844C20.4892 31.1389 20.5968 30.5969 20.8193 30.0987C21.0419 29.6004 21.3737 29.1586 21.7903 28.806C22.7425 27.9474 23.9923 27.4941 25.2736 27.5426C26.4879 27.5014 27.6704 27.9349 28.5702 28.7511C29.0159 29.2073 29.3608 29.7521 29.5823 30.3502C29.8037 30.9483 29.8969 31.5862 29.8558 32.2227V38.6825C29.8546 39.2078 29.8876 39.7326 29.9547 40.2535C30.0187 40.7606 30.1291 41.2607 30.2844 41.7477H27.6362ZM24.4825 40.0338C25.0828 40.0394 25.6687 39.8505 26.1527 39.4955C26.6382 39.152 27.0186 38.6804 27.2516 38.1332V35.2768H25.2736C24.9245 35.2566 24.5753 35.3152 24.2519 35.4484C23.9285 35.5815 23.6393 35.7857 23.4056 36.0459C22.9614 36.5692 22.7265 37.2384 22.7463 37.9245C22.7222 38.4695 22.8808 39.0069 23.1968 39.4516C23.3508 39.6408 23.5478 39.7905 23.7715 39.888C23.9952 39.9854 24.239 40.0279 24.4825 40.0119V40.0338Z" fill="white"/>
<path d="M37.2177 35.3313H36.1189V41.7252H33.5146V21.6426H36.1189V33.3428H37.1848L40.2615 27.7948H43.3163L39.2726 34.0789L43.8877 41.7252H40.8549L37.2177 35.3313Z" fill="white"/>
<path d="M52.5244 38.2321C52.5311 37.9805 52.4869 37.7301 52.3943 37.496C52.3018 37.2619 52.1629 37.0489 51.986 36.8698C51.3959 36.3411 50.7145 35.9241 49.9751 35.6394C48.8137 35.239 47.7342 34.6324 46.7884 33.8487C46.4462 33.5412 46.1754 33.1625 45.9951 32.7393C45.8148 32.3161 45.7292 31.8585 45.7445 31.3987C45.7405 30.8768 45.8529 30.3604 46.0733 29.8873C46.2938 29.4141 46.6169 28.996 47.0192 28.6632C47.9944 27.9229 49.1889 27.5295 50.4133 27.5454C51.6376 27.5613 52.8215 27.9857 53.7771 28.7511C54.1889 29.1373 54.5113 29.6087 54.722 30.1324C54.9327 30.6562 55.0265 31.2196 54.9968 31.7833L54.9418 31.8602H52.4585C52.4736 31.2449 52.2756 30.6434 51.8981 30.1573C51.7151 29.9238 51.4791 29.7373 51.2097 29.6131C50.9402 29.4889 50.6451 29.4307 50.3487 29.4432C50.0702 29.4269 49.7913 29.4672 49.5288 29.5616C49.2663 29.656 49.0256 29.8026 48.8213 29.9925C48.6465 30.1623 48.5078 30.3656 48.4134 30.5903C48.319 30.8149 48.2709 31.0562 48.2719 31.2999C48.2604 31.5315 48.2964 31.7631 48.3777 31.9803C48.4589 32.1976 48.5837 32.396 48.7444 32.5633C49.3604 33.056 50.0406 33.4625 50.7662 33.7718C51.9743 34.1358 53.0958 34.7412 54.0628 35.5515C54.4217 35.8721 54.7061 36.2674 54.896 36.7096C55.0858 37.1519 55.1765 37.6303 55.1616 38.1113C55.1749 38.6475 55.0638 39.1795 54.8369 39.6656C54.61 40.1516 54.2736 40.5785 53.854 40.9127C52.8671 41.6779 51.6402 42.0673 50.3926 42.0114C49.715 42.0499 49.0366 41.9489 48.3996 41.7146C47.7626 41.4802 47.1806 41.1176 46.6895 40.6491C46.2708 40.2591 45.9411 39.7834 45.723 39.2544C45.5049 38.7255 45.4036 38.1557 45.4259 37.5839V37.507H47.8653C47.8372 37.8831 47.8914 38.2607 48.0243 38.6136C48.1571 38.9666 48.3654 39.2863 48.6345 39.5505C49.1167 39.9542 49.7311 40.1655 50.3597 40.1437C50.9477 40.1605 51.5192 39.9477 51.953 39.5505C52.1347 39.3825 52.2793 39.1785 52.3777 38.9515C52.4761 38.7245 52.526 38.4795 52.5244 38.2321Z" fill="white"/>
<path d="M63.205 42.0008C62.4536 42.0287 61.7054 41.8884 61.0152 41.5899C60.3251 41.2915 59.7104 40.8425 59.2162 40.276C58.2056 39.0392 57.6784 37.4776 57.7327 35.8815V33.8161C57.6693 32.1888 58.1874 30.592 59.1942 29.3118C59.632 28.7473 60.196 28.2932 60.841 27.9861C61.486 27.6789 62.194 27.5272 62.9083 27.543C63.5989 27.5072 64.2882 27.6347 64.9202 27.9154C65.5522 28.196 66.109 28.6217 66.5455 29.158C67.4547 30.4159 67.9047 31.9478 67.8201 33.4975V35.2992H60.326V35.8595C60.2861 36.9087 60.5617 37.9457 61.1172 38.8368C61.3586 39.211 61.6932 39.5161 62.0881 39.7222C62.483 39.9282 62.9246 40.0282 63.3698 40.0123C64.0058 40.0295 64.6384 39.9135 65.2269 39.6717C65.7664 39.4223 66.2603 39.0844 66.6883 38.672L67.5124 40.2979C67.0231 40.8287 66.4229 41.245 65.7543 41.5174C64.9462 41.8501 64.0788 42.0146 63.205 42.0008ZM62.9083 29.5205C62.5336 29.5232 62.1666 29.6265 61.8456 29.8198C61.5247 30.0131 61.2617 30.2892 61.0842 30.6191C60.5999 31.4744 60.3391 32.4379 60.326 33.4206H65.2378V32.9592C65.2722 32.1067 65.0666 31.2617 64.6445 30.5203C64.474 30.211 64.222 29.9543 63.916 29.7781C63.6099 29.6019 63.2614 29.5128 62.9083 29.5205Z" fill="white"/>
<path d="M73.1718 27.795L73.3147 29.8604C73.6524 29.177 74.1546 28.5881 74.7762 28.1466C75.368 27.7425 76.0704 27.5315 76.787 27.5423C77.3357 27.5181 77.882 27.6285 78.3781 27.8641C78.8743 28.0997 79.3051 28.4531 79.633 28.8936C80.4099 30.1489 80.7677 31.6185 80.655 33.0904V41.7474H78.0177V33.1123C78.0968 32.1621 77.9023 31.2091 77.4573 30.3658C77.273 30.1069 77.0263 29.8987 76.7401 29.7605C76.4539 29.6222 76.1375 29.5584 75.82 29.5748C75.3042 29.5681 74.8024 29.7431 74.4025 30.0692C73.969 30.4316 73.6265 30.8907 73.4026 31.4095V41.7474H70.7764V27.795H73.1718Z" fill="white"/>
<path d="M90.0391 36.794C90.0229 35.8169 90.3067 34.8583 90.8523 34.0474C91.5183 33.121 92.3225 32.3022 93.2367 31.6195C92.7219 30.9077 92.2871 30.1414 91.9401 29.3344C91.6593 28.6742 91.5136 27.9644 91.5116 27.247C91.4356 26.0474 91.8297 24.8653 92.6104 23.9512C93.018 23.5447 93.5063 23.2281 94.0439 23.0219C94.5814 22.8156 95.1561 22.7243 95.7311 22.7537C96.2645 22.7247 96.7981 22.8075 97.2976 22.9967C97.7972 23.1858 98.2517 23.4773 98.6321 23.8523C98.9925 24.2249 99.2752 24.6654 99.4639 25.1482C99.6525 25.6311 99.7433 26.1466 99.7309 26.6648C99.7512 27.4364 99.5531 28.198 99.1595 28.862C98.7325 29.5413 98.1851 30.137 97.5442 30.6198L96.2146 31.7184L99.9836 36.783H100.061C100.337 36.2463 100.547 35.6782 100.687 35.0911C100.841 34.4248 100.914 33.7425 100.907 33.0587H103.038C103.047 34.1023 102.906 35.1418 102.621 36.1458C102.36 37.0516 101.939 37.9036 101.379 38.6616L103.742 41.7487H100.698L99.6979 40.4084C99.09 40.9155 98.4034 41.32 97.6651 41.6059C96.9638 41.877 96.2192 42.0184 95.4674 42.0234C94.7521 42.0586 94.037 41.9493 93.3649 41.702C92.6928 41.4547 92.0774 41.0746 91.5555 40.5842C91.0536 40.0922 90.6595 39.5011 90.3984 38.8486C90.1374 38.1961 90.015 37.4964 90.0391 36.794ZM95.5333 40.0129C96.0745 40.0123 96.611 39.9117 97.1157 39.7163C97.651 39.5005 98.1482 39.2 98.5881 38.8264L94.4674 33.2564L94.1708 33.4981C93.6966 34.001 93.3236 34.5903 93.0719 35.2339C92.8888 35.7111 92.792 36.217 92.7862 36.7281C92.7119 37.5594 92.9295 38.3907 93.4016 39.0791C93.648 39.392 93.9667 39.6405 94.3304 39.8032C94.694 39.9658 95.0918 40.0378 95.4894 40.0129H95.5333ZM93.984 27.2031C93.9919 27.6712 94.0889 28.1335 94.2697 28.5654C94.5079 29.1101 94.7947 29.6322 95.1267 30.1254L96.4673 29.0268C96.8464 28.7386 97.1484 28.3612 97.3464 27.9282C97.5127 27.528 97.5949 27.098 97.5882 26.6648C97.6005 26.1466 97.4293 25.6407 97.1047 25.2366C96.9455 25.0427 96.7437 24.8883 96.5149 24.7854C96.2862 24.6824 96.0367 24.6338 95.7861 24.6433C95.5208 24.6325 95.2575 24.6931 95.0236 24.8187C94.7898 24.9443 94.5939 25.1303 94.4565 25.3574C94.1137 25.9098 93.9488 26.554 93.984 27.2031Z" fill="white"/>
<path d="M125.553 41.7267H122.949L115.84 27.7853L115.763 27.8073V41.7267H113.147V22.9844H115.763L122.872 36.8818L122.949 36.8599V22.9844H125.553V41.7267Z" fill="white"/>
<path d="M129.026 33.8819C128.961 32.2392 129.474 30.6257 130.477 29.3227C130.975 28.7623 131.587 28.3139 132.272 28.0068C132.957 27.6998 133.698 27.541 134.449 27.541C135.199 27.541 135.941 27.6998 136.626 28.0068C137.31 28.3139 137.922 28.7623 138.421 29.3227C139.425 30.6248 139.939 32.239 139.872 33.8819V35.6617C139.954 37.3013 139.452 38.9169 138.454 40.2209C137.955 40.7812 137.343 41.2297 136.659 41.5367C135.974 41.8438 135.232 42.0025 134.482 42.0025C133.731 42.0025 132.99 41.8438 132.305 41.5367C131.62 41.2297 131.008 40.7812 130.509 40.2209C129.5 38.9214 128.986 37.3053 129.059 35.6617L129.026 33.8819ZM131.641 35.6507C131.597 36.7414 131.84 37.8247 132.345 38.7927C132.558 39.1624 132.864 39.4694 133.234 39.6829C133.603 39.8963 134.022 40.0087 134.449 40.0087C134.876 40.0087 135.295 39.8963 135.664 39.6829C136.034 39.4694 136.34 39.1624 136.553 38.7927C137.058 37.8247 137.3 36.7414 137.256 35.6507V33.8709C137.298 32.7874 137.056 31.7118 136.553 30.7508C136.342 30.3784 136.037 30.0685 135.667 29.8529C135.297 29.6373 134.877 29.5236 134.449 29.5236C134.021 29.5236 133.6 29.6373 133.231 29.8529C132.861 30.0685 132.555 30.3784 132.345 30.7508C131.84 31.7109 131.597 32.7871 131.641 33.8709V35.6507Z" fill="white"/>
<path d="M145.399 27.7952L145.542 29.6848C145.88 29.0443 146.376 28.5 146.981 28.1028C147.597 27.7195 148.311 27.5247 149.036 27.5425C149.745 27.5244 150.439 27.7492 151.003 28.1797C151.608 28.6816 152.045 29.3562 152.256 30.1133C152.563 29.3686 153.059 28.7172 153.695 28.2237C154.307 27.7599 155.06 27.5195 155.827 27.5425C156.38 27.5257 156.928 27.6513 157.419 27.9072C157.91 28.163 158.326 28.5406 158.629 29.0037C159.397 30.3351 159.753 31.8645 159.651 33.3981V41.7476H157.036V33.4311C157.113 32.403 156.932 31.3719 156.508 30.4319C156.354 30.1608 156.127 29.9374 155.854 29.7863C155.581 29.6352 155.271 29.5621 154.959 29.575C154.676 29.5698 154.395 29.6272 154.137 29.743C153.879 29.8589 153.649 30.0303 153.465 30.2451C153.036 30.7681 152.739 31.3858 152.597 32.0468C152.597 31.9699 152.597 32.0468 152.597 32.3764C152.597 32.706 152.597 32.8708 152.597 32.9916V41.7476H149.992V33.4311C150.067 32.4127 149.882 31.3919 149.454 30.4648C149.299 30.1867 149.07 29.9565 148.793 29.7996C148.516 29.6426 148.201 29.5649 147.883 29.575C147.376 29.5584 146.879 29.7175 146.476 30.0254C146.071 30.3657 145.761 30.8046 145.575 31.2998V41.7476H142.971V27.7952H145.399Z" fill="white"/>
<path d="M170.409 41.7471C170.312 41.4409 170.235 41.129 170.178 40.8133C170.116 40.5089 170.075 40.2005 170.057 39.8904C169.689 40.5008 169.194 41.0253 168.607 41.4285C168.034 41.8209 167.355 42.028 166.662 42.0217C166.149 42.0523 165.637 41.9697 165.16 41.7798C164.683 41.59 164.254 41.2975 163.903 40.9231C163.203 40.0941 162.846 39.0294 162.904 37.9459C162.875 37.3555 162.982 36.7665 163.217 36.2238C163.451 35.6812 163.806 35.1992 164.255 34.8148C165.359 34.006 166.714 33.6165 168.079 33.7162H170.024V32.2111C170.068 31.5057 169.866 30.8068 169.453 30.2336C169.258 30.0158 169.02 29.8401 168.755 29.7175C168.489 29.595 168.201 29.528 167.909 29.5208C167.617 29.5136 167.326 29.5663 167.055 29.6757C166.783 29.785 166.537 29.9487 166.332 30.1567C165.945 30.5995 165.741 31.1729 165.761 31.7607H163.277V31.6838C163.261 31.1372 163.37 30.5942 163.595 30.0956C163.819 29.597 164.154 29.1559 164.574 28.8054C165.527 27.9497 166.777 27.5003 168.057 27.553C169.271 27.5141 170.453 27.9473 171.354 28.7615C171.799 29.2177 172.144 29.7625 172.366 30.3606C172.587 30.9587 172.68 31.5966 172.639 32.2331V38.6929C172.638 39.2182 172.671 39.743 172.738 40.2639C172.796 40.7629 172.899 41.2556 173.046 41.7361L170.409 41.7471ZM167.255 40.0332C167.855 40.0372 168.44 39.8485 168.925 39.4949C169.408 39.1481 169.787 38.6774 170.024 38.1326V35.2762H168.035C167.688 35.2561 167.34 35.3148 167.018 35.448C166.697 35.5812 166.41 35.7854 166.178 36.0453C165.734 36.5686 165.499 37.2378 165.519 37.9239C165.489 38.4695 165.649 39.0086 165.969 39.451C166.123 39.6402 166.32 39.7899 166.544 39.8874C166.768 39.9849 167.011 40.0273 167.255 40.0113V40.0332Z" fill="white"/>
<path d="M178.639 27.795L178.781 29.8604C179.111 29.1812 179.601 28.5928 180.21 28.1466C180.802 27.7425 181.504 27.5315 182.221 27.5423C182.77 27.5181 183.316 27.6285 183.812 27.8641C184.308 28.0997 184.739 28.4531 185.067 28.8936C185.835 30.1522 186.189 31.6201 186.078 33.0904V41.7474H183.507V33.1123C183.582 32.1635 183.392 31.2124 182.957 30.3658C182.768 30.1043 182.515 29.8948 182.223 29.7565C181.931 29.6183 181.609 29.5558 181.287 29.5748C180.771 29.5681 180.269 29.7431 179.869 30.0692C179.432 30.431 179.086 30.89 178.858 31.4095V41.7474H176.243V27.795H178.639Z" fill="white"/>
<path d="M192.11 27.7948L192.253 29.8602C192.595 29.176 193.101 28.5871 193.726 28.1463C194.317 27.7423 195.02 27.5312 195.737 27.5421C196.285 27.5188 196.831 27.6297 197.327 27.8652C197.823 28.1007 198.254 28.4536 198.583 28.8934C199.351 30.152 199.704 31.6199 199.593 33.0901V41.7472H196.978V33.1121C197.054 32.1633 196.864 31.2122 196.429 30.3655C196.238 30.1024 195.984 29.8919 195.69 29.7536C195.396 29.6152 195.072 29.5536 194.748 29.5745C194.235 29.5704 193.738 29.7453 193.341 30.0689C192.904 30.4307 192.558 30.8897 192.33 31.4092V41.7472H189.715V27.7948H192.11Z" fill="white"/>
<path d="M206 24.1694H203.385V21.6426H206V24.1694ZM206 41.7472H203.385V27.7948H206V41.7472Z" fill="white"/>
</svg>
