<svg width="334" height="68" viewBox="0 0 334 68" fill="none" xmlns="http://www.w3.org/2000/svg">
<g clip-path="url(#clip0)">
<path d="M16.1949 25.2742H6.52072L4.2937 32.9583H0L9.3535 2.5957H13.4512L22.7156 32.9583H18.4219L16.1949 25.2742ZM7.50061 21.9303H15.2328L11.438 8.67889H11.3133L7.50061 21.9303Z" fill="#223555"/>
<path d="M25.8693 21.9479C25.7349 18.9318 26.4116 15.9348 27.829 13.2678C28.3493 12.2624 29.1401 11.4218 30.1126 10.8405C31.0852 10.2592 32.2009 9.96021 33.3342 9.97724C34.3186 9.96541 35.289 10.2107 36.1492 10.6887C37.0139 11.192 37.7467 11.8931 38.2871 12.7342V0.443359H42.5096V32.9581H38.8216L38.5009 30.3612C37.9711 31.2853 37.2177 32.062 36.3095 32.6202C35.3948 33.1451 34.3534 33.4096 33.2986 33.385C32.2032 33.4173 31.1189 33.1575 30.1575 32.6322C29.1961 32.107 28.3924 31.3353 27.829 30.3968C26.4178 27.9726 25.7374 25.1934 25.8693 22.3926V21.9479ZM30.1095 22.3926C30.0216 24.326 30.3749 26.2541 31.1429 28.0311C31.4039 28.6647 31.8527 29.2036 32.429 29.5755C33.0053 29.9475 33.6817 30.1347 34.3676 30.1122C35.214 30.1388 36.0439 29.8751 36.7193 29.3652C37.4123 28.8101 37.952 28.0877 38.2871 27.2663V16.2917C37.9431 15.4449 37.4063 14.6898 36.7193 14.0861C36.0736 13.5518 35.2597 13.262 34.421 13.2678C33.6929 13.2719 32.9849 13.5066 32.399 13.9382C31.8131 14.3697 31.3795 14.9758 31.1607 15.6691C30.3928 17.6707 30.0353 19.8058 30.1095 21.9479V22.3926Z" fill="#223555"/>
<path d="M55.0704 26.1834L55.4267 27.9265H55.5514L55.9078 26.1834L59.7382 10.4062H64.1032L57.3509 32.9603H53.6095L46.8037 10.4062H51.1865L55.0704 26.1834Z" fill="#223555"/>
<path d="M67.0603 20.2589C66.9822 17.5917 67.8392 14.9809 69.4833 12.8772C70.2892 11.965 71.2803 11.2343 72.3907 10.7339C73.5012 10.2334 74.7056 9.97461 75.9239 9.97461C77.1422 9.97461 78.3466 10.2334 79.4571 10.7339C80.5675 11.2343 81.5586 11.965 82.3644 12.8772C83.9954 14.9841 84.8283 17.5985 84.7162 20.2589V23.1226C84.8314 25.7834 83.9981 28.3988 82.3644 30.5042C81.595 31.45 80.6136 32.202 79.4995 32.6995C78.3854 33.1969 77.1697 33.4259 75.9506 33.368C74.7251 33.4294 73.5021 33.2041 72.3792 32.71C71.2564 32.2159 70.2647 31.4667 69.4833 30.522C67.827 28.4179 66.9689 25.7971 67.0603 23.1226V20.2589ZM71.265 23.1226C71.2 24.8823 71.5929 26.6289 72.4052 28.1919C72.7493 28.7946 73.247 29.2956 73.8478 29.6441C74.4486 29.9927 75.1311 30.1762 75.8259 30.1762C76.5208 30.1762 77.2032 29.9927 77.804 29.6441C78.4048 29.2956 78.9025 28.7946 79.2466 28.1919C80.059 26.6289 80.4518 24.8823 80.3868 23.1226V20.2411C80.4534 18.489 80.0668 16.7492 79.2644 15.1895C78.9203 14.5869 78.4226 14.0858 77.8218 13.7373C77.221 13.3888 76.5386 13.2052 75.8437 13.2052C75.1489 13.2052 74.4664 13.3888 73.8656 13.7373C73.2648 14.0858 72.7671 14.5869 72.423 15.1895C71.6113 16.747 71.2126 18.4861 71.265 20.2411V23.1226Z" fill="#223555"/>
<path d="M95.7619 22.5883H93.9624V32.9581H89.7578V0.443359H93.9624V19.3866H95.7084L100.697 10.4041H105.632L99.0935 20.5783L106.576 32.9581H101.659L95.7619 22.5883Z" fill="#223555"/>
<path d="M121.56 32.959C121.404 32.4633 121.279 31.9583 121.186 31.4471C121.085 30.9543 121.02 30.455 120.99 29.953C120.397 30.9396 119.595 31.7838 118.638 32.4254C117.708 33.0555 116.609 33.3903 115.485 33.3859C114.652 33.4343 113.818 33.3002 113.043 32.993C112.267 32.6857 111.568 32.2127 110.995 31.6072C109.878 30.2546 109.301 28.5382 109.374 26.7869C109.33 25.827 109.506 24.8698 109.889 23.9883C110.272 23.1067 110.851 22.324 111.583 21.6998C113.374 20.3944 115.571 19.7643 117.783 19.9211H120.919V17.5376C120.985 16.3987 120.665 15.2707 120.01 14.3359C119.695 13.9527 119.293 13.6496 118.838 13.4517C118.383 13.2538 117.887 13.1667 117.391 13.1975C116.933 13.1787 116.477 13.2614 116.055 13.4398C115.633 13.6182 115.255 13.8878 114.95 14.2292C114.319 14.9443 113.988 15.8739 114.024 16.8261H109.979V16.7016C109.953 15.8209 110.127 14.9456 110.488 14.1416C110.849 13.3376 111.388 12.6256 112.064 12.0592C113.614 10.6679 115.646 9.93421 117.73 10.0137C119.701 9.94794 121.62 10.6568 123.074 11.988C123.794 12.7281 124.35 13.6109 124.706 14.5792C125.062 15.5475 125.21 16.5796 125.141 17.6087V28.0675C125.139 28.9179 125.193 29.7676 125.301 30.6111C125.412 31.4177 125.585 32.2145 125.818 32.9945L121.56 32.959ZM116.447 30.2376C117.416 30.2401 118.361 29.928 119.137 29.3482C119.923 28.799 120.541 28.0412 120.919 27.1604V22.4646H117.712C117.149 22.4346 116.586 22.5308 116.065 22.7463C115.544 22.9617 115.078 23.2909 114.701 23.7097C113.968 24.5581 113.581 25.6495 113.614 26.7691C113.575 27.6514 113.832 28.5215 114.344 29.2415C114.589 29.5634 114.908 29.8218 115.274 29.9952C115.64 30.1685 116.042 30.2516 116.447 30.2376Z" fill="#223555"/>
<path d="M136.472 4.80273V10.4057H140.035V13.4295H136.472V26.8409C136.392 27.7038 136.572 28.5708 136.988 29.3311C137.131 29.5607 137.331 29.7499 137.568 29.8807C137.805 30.0115 138.072 30.0794 138.342 30.0782C138.651 30.0974 138.96 30.0974 139.269 30.0782L140.284 29.8825L140.748 32.7462C140.231 32.9553 139.693 33.1103 139.144 33.2087C138.558 33.3284 137.961 33.388 137.362 33.3866C136.661 33.4275 135.959 33.3077 135.31 33.0364C134.662 32.7651 134.084 32.3495 133.621 31.8213C132.623 30.3609 132.158 28.6028 132.303 26.8409V13.4295H129.31V10.4057H132.249V4.80273H136.472Z" fill="#223555"/>
<path d="M146.36 32.9594V13.3936H143.42V10.4054H146.36V8.09304C146.287 7.00826 146.431 5.91988 146.782 4.89094C147.134 3.86199 147.687 2.91296 148.408 2.0988C149.155 1.37491 150.044 0.814371 151.02 0.452976C151.995 0.0915824 153.035 -0.06272 154.074 -7.53049e-05C154.951 0.00218973 155.824 0.109683 156.675 0.320092C157.631 0.571488 158.571 0.88036 159.49 1.24502L158.849 4.53563C158.181 4.23732 157.49 3.99344 156.782 3.80636C155.989 3.61516 155.174 3.5314 154.359 3.55734C153.829 3.51583 153.297 3.59878 152.805 3.79955C152.313 4.00032 151.875 4.31333 151.526 4.7135C150.837 5.71356 150.511 6.91818 150.6 8.12862V10.4409H154.43V13.4647H150.6V33.0305L146.36 32.9594ZM161.503 32.9594H157.263V10.4054H161.503V32.9594Z" fill="#223555"/>
<path d="M177.432 13.9632L175.454 13.8565C174.648 13.8319 173.863 14.1186 173.263 14.6569C172.637 15.2709 172.183 16.0373 171.944 16.8803V32.8887H167.704V10.4058H171.57L171.891 13.8031C172.254 12.739 172.865 11.7759 173.673 10.9928C174.41 10.3178 175.381 9.95435 176.381 9.97892C176.665 9.96276 176.951 9.96276 177.236 9.97892C177.467 10.014 177.694 10.0737 177.913 10.1568L177.432 13.9632Z" fill="#223555"/>
<path d="M185.858 10.405L186.09 13.4644C186.638 12.4222 187.441 11.535 188.424 10.8852C189.416 10.267 190.568 9.95171 191.738 9.97809C192.892 9.95456 194.021 10.3178 194.945 11.0097C195.928 11.8536 196.63 12.9767 196.958 14.2292C197.467 13.0254 198.269 11.9677 199.292 11.152C200.321 10.3934 201.577 10.0047 202.855 10.0492C203.75 10.0321 204.635 10.2398 205.429 10.6531C206.223 11.0665 206.9 11.6723 207.398 12.4149C208.655 14.5987 209.231 17.1065 209.055 19.6187V33.0301H204.815V19.5653C204.944 17.9006 204.65 16.2303 203.96 14.7095C203.703 14.2437 203.319 13.8606 202.851 13.6054C202.384 13.3502 201.854 13.2334 201.323 13.2687C200.865 13.2626 200.412 13.3585 199.996 13.5492C199.58 13.74 199.211 14.0209 198.918 14.3715C198.219 15.2094 197.736 16.2045 197.51 17.2708C197.51 17.1641 197.51 17.2708 197.51 17.8044C197.51 18.338 197.51 18.6048 197.51 18.8183V33.0479H193.305V19.5653C193.426 17.9147 193.119 16.261 192.415 14.7628C192.167 14.3078 191.798 13.9304 191.348 13.6729C190.898 13.4153 190.385 13.2877 189.867 13.3043C189.049 13.2866 188.25 13.5504 187.604 14.0513C186.98 14.573 186.501 15.247 186.215 16.0079V32.8879H181.992V10.405H185.858Z" fill="#223555"/>
<path d="M226.408 32.959C226.252 32.4633 226.127 31.9583 226.034 31.4471C225.933 30.9543 225.868 30.455 225.838 29.953C225.245 30.9396 224.442 31.7838 223.486 32.4254C222.558 33.0607 221.457 33.396 220.332 33.3859C219.499 33.4343 218.666 33.3002 217.89 32.993C217.115 32.6857 216.416 32.2127 215.843 31.6072C214.723 30.2571 214.151 28.5373 214.239 26.7869C214.193 25.8284 214.367 24.8722 214.747 23.9907C215.126 23.1092 215.702 22.3257 216.431 21.6998C218.223 20.3972 220.419 19.7674 222.631 19.9211H225.784V17.5376C225.853 16.3958 225.526 15.2653 224.858 14.3359C224.534 13.9954 224.145 13.7223 223.715 13.5325C223.284 13.3427 222.821 13.2399 222.35 13.2299C221.88 13.22 221.412 13.3032 220.974 13.4747C220.536 13.6462 220.136 13.9026 219.798 14.2292C219.167 14.9443 218.836 15.8739 218.872 16.8261H214.845V16.7016C214.819 15.8209 214.993 14.9456 215.354 14.1416C215.715 13.3376 216.254 12.6256 216.93 12.0592C218.48 10.6679 220.512 9.93421 222.595 10.0137C224.567 9.94794 226.486 10.6568 227.94 11.988C228.663 12.7266 229.222 13.6087 229.581 14.5771C229.94 15.5454 230.091 16.5783 230.025 17.6087V28.0675C230.026 28.9173 230.074 29.7664 230.167 30.6111C230.278 31.4177 230.45 32.2145 230.684 32.9945L226.408 32.959ZM221.295 30.2376C222.269 30.2376 223.218 29.9259 224.003 29.3482C224.782 28.7916 225.398 28.0359 225.784 27.1604V22.4646H222.56C221.997 22.4371 221.435 22.5345 220.914 22.7498C220.393 22.9651 219.927 23.2929 219.549 23.7097C218.829 24.5641 218.448 25.6529 218.48 26.7691C218.432 27.6524 218.69 28.5253 219.21 29.2415C219.45 29.5642 219.766 29.8236 220.129 29.9971C220.492 30.1707 220.892 30.2532 221.295 30.2376Z" fill="#223555"/>
<path d="M244.082 33.3861C242.866 33.4338 241.655 33.2075 240.538 32.7241C239.422 32.2407 238.429 31.5125 237.632 30.5935C235.977 28.5993 235.115 26.0668 235.209 23.4787V20.1525C235.114 17.5188 235.953 14.9362 237.579 12.8598C238.293 11.9443 239.21 11.2073 240.258 10.7072C241.306 10.207 242.457 9.95749 243.619 9.97829C244.724 9.93436 245.824 10.1477 246.832 10.6016C247.84 11.0554 248.728 11.7372 249.427 12.593C250.911 14.6583 251.641 17.1699 251.493 19.7078V22.6249H239.343V23.5143C239.276 25.2188 239.722 26.9042 240.626 28.3523C241.024 28.967 241.579 29.4652 242.233 29.7964C242.887 30.1276 243.617 30.2799 244.349 30.2378C245.375 30.2674 246.395 30.0795 247.342 29.6864C248.225 29.2873 249.033 28.7398 249.73 28.0677L251.066 30.7002C250.269 31.5635 249.289 32.238 248.197 32.6746C246.889 33.1895 245.488 33.4316 244.082 33.3861ZM243.619 13.1978C243.01 13.1982 242.414 13.364 241.893 13.6773C241.372 13.9907 240.946 14.4398 240.661 14.9765C239.876 16.3611 239.453 17.9211 239.432 19.5122H247.396V18.6762C247.456 17.2955 247.123 15.9261 246.434 14.7274C246.144 14.2405 245.728 13.8411 245.229 13.5718C244.73 13.3024 244.167 13.1731 243.601 13.1978H243.619Z" fill="#223555"/>
<path d="M261.898 4.80273V10.4057H265.461V13.4295H261.898V26.8409C261.818 27.7038 261.998 28.5708 262.415 29.3311C262.559 29.5595 262.759 29.7478 262.995 29.8784C263.232 30.0091 263.498 30.0778 263.769 30.0782C264.077 30.0974 264.387 30.0974 264.695 30.0782L265.711 29.8825L266.156 32.7996C265.639 33.0087 265.102 33.1636 264.553 33.2621C263.966 33.3821 263.369 33.4417 262.771 33.4399C262.069 33.4795 261.368 33.3591 260.72 33.0879C260.071 32.8167 259.493 32.4018 259.03 31.8747C258.032 30.4142 257.566 28.6561 257.711 26.8943V13.4295H254.771V10.4057H257.711V4.80273H261.898Z" fill="#223555"/>
<path d="M6.89529 37.2109H2.67285V67.5557H6.89529V37.2109Z" fill="#223555"/>
<path d="M24.1587 61.8979C24.1696 61.4905 24.0978 61.0851 23.9478 60.7061C23.7978 60.327 23.5726 59.9822 23.2857 59.6923C22.329 58.8362 21.2242 58.1611 20.0253 57.7001C18.1443 57.0477 16.3947 56.0659 14.8586 54.8008C14.306 54.3021 13.8697 53.6884 13.5803 53.0031C13.291 52.3178 13.1557 51.5775 13.1839 50.8343C13.174 49.9904 13.3528 49.1549 13.7072 48.3888C14.0617 47.6226 14.5828 46.945 15.2328 46.4053C16.7329 45.1732 18.637 44.5395 20.5776 44.6266C22.6157 44.5264 24.6118 45.2289 26.1363 46.5832C26.8039 47.2085 27.3268 47.9717 27.6684 48.8197C28.0099 49.6676 28.162 50.5798 28.1139 51.4924V51.6169H24.0518C24.0897 50.6109 23.7746 49.6232 23.161 48.8244C22.8643 48.4463 22.4817 48.1443 22.0449 47.9432C21.608 47.7422 21.1295 47.6479 20.6489 47.6682C20.1974 47.6429 19.7455 47.7085 19.32 47.8613C18.8946 48.0141 18.5043 48.2509 18.1724 48.5576C17.8891 48.8325 17.6642 49.1616 17.5111 49.5253C17.3581 49.889 17.28 50.2798 17.2816 50.6742C17.2671 51.0489 17.3274 51.4226 17.4589 51.7738C17.5905 52.125 17.7906 52.4465 18.0477 52.7197C19.0641 53.5199 20.185 54.1782 21.3794 54.6763C23.3361 55.2702 25.1536 56.25 26.7242 57.5578C27.2997 58.0821 27.7563 58.7231 28.0636 59.4378C28.3709 60.1526 28.5216 60.9246 28.5058 61.7022C28.5274 62.5704 28.3472 63.4317 27.9794 64.2187C27.6115 65.0057 27.066 65.6968 26.3857 66.2379C24.7911 67.4741 22.8084 68.1045 20.7914 68.0166C19.6783 68.0894 18.5621 67.9309 17.5133 67.5513C16.4646 67.1717 15.5061 66.5791 14.6983 65.811C14.0313 65.1855 13.504 64.4265 13.1509 63.5836C12.7979 62.7407 12.627 61.8329 12.6494 60.9196V60.7951H16.6402C16.5958 61.387 16.6777 61.9816 16.8804 62.5396C17.0831 63.0977 17.402 63.6064 17.8161 64.0323C18.5996 64.6831 19.5946 65.0248 20.6133 64.9928C21.5544 65.0107 22.4665 64.6669 23.161 64.0323C23.4711 63.769 23.7208 63.4421 23.893 63.0737C24.0652 62.7054 24.1558 62.3043 24.1587 61.8979Z" fill="#223555"/>
<path d="M44.8072 67.5903C44.6647 67.0745 44.5399 66.5765 44.433 66.0784C44.3385 65.5852 44.279 65.0859 44.2549 64.5843C43.6517 65.5734 42.8438 66.4224 41.8853 67.0745C40.9576 67.7098 39.8568 68.0451 38.7319 68.035C37.9015 68.0833 37.0707 67.949 36.298 67.6417C35.5253 67.3343 34.8296 66.8614 34.26 66.2563C33.1248 64.9141 32.545 63.1902 32.6387 61.436C32.591 60.4783 32.7656 59.5224 33.1488 58.6431C33.532 57.7638 34.1135 56.9847 34.8479 56.3667C36.629 55.0541 38.8226 54.4229 41.0302 54.588H44.1836V52.1512C44.2531 51.012 43.9327 49.883 43.275 48.9495C42.9589 48.5663 42.5575 48.2622 42.1028 48.0614C41.6481 47.8607 41.1526 47.7689 40.656 47.7933C40.1954 47.7743 39.7363 47.8569 39.3114 48.0352C38.8864 48.2135 38.506 48.4832 38.1974 48.825C37.5759 49.5455 37.2456 50.4714 37.2709 51.4219H33.2445V51.2974C33.2194 50.4142 33.3938 49.5368 33.7546 48.73C34.1155 47.9233 34.6536 47.208 35.329 46.6372C36.8729 45.247 38.8991 44.5131 40.9767 44.5917C42.9454 44.5249 44.8627 45.2268 46.3216 46.5482C47.0443 47.2868 47.6034 48.1689 47.9625 49.1373C48.3216 50.1056 48.4727 51.1385 48.406 52.1689V62.6278C48.4041 63.4782 48.4576 64.3278 48.5664 65.1713C48.6702 65.9923 48.8491 66.802 49.1009 67.5903H44.8072ZM39.6939 64.8156C40.6672 64.8246 41.6172 64.5188 42.402 63.944C43.1891 63.3879 43.806 62.6242 44.1836 61.7384V57.1138H40.9767C40.4106 57.081 39.8444 57.1759 39.3201 57.3915C38.7958 57.607 38.3268 57.9377 37.948 58.3589C37.2277 59.2062 36.8469 60.2896 36.879 61.4004C36.84 62.2828 37.097 63.1529 37.6094 63.8728C37.8591 64.1793 38.1786 64.4216 38.5412 64.5794C38.9039 64.7372 39.2992 64.806 39.6939 64.78V64.8156Z" fill="#223555"/>
<path d="M60.3429 57.2037H58.5613V67.5558H54.3389V35.041H58.5613V53.9842H60.2895L65.278 45.0018H70.2309L63.6746 55.176L71.1574 67.5558H66.2401L60.3429 57.2037Z" fill="#223555"/>
<path d="M85.1617 61.8988C85.1725 61.4914 85.1008 61.086 84.9508 60.707C84.8008 60.328 84.5755 59.9831 84.2887 59.6932C83.332 58.8371 82.2272 58.162 81.0283 57.701C79.1453 57.0529 77.3951 56.0707 75.8616 54.8018C75.3067 54.3039 74.8677 53.6909 74.5753 53.0056C74.2829 52.3204 74.1442 51.5796 74.169 50.8352C74.1626 49.9901 74.3447 49.1542 74.7021 48.3881C75.0596 47.622 75.5835 46.945 76.2357 46.4063C77.8168 45.2077 79.7536 44.5707 81.7387 44.5965C83.7238 44.6222 85.6434 45.3093 87.1927 46.5486C87.8603 47.1738 88.3832 47.9371 88.7248 48.785C89.0664 49.633 89.2184 50.5451 89.1703 51.4578L89.0812 51.5823H85.0548C85.0792 50.5862 84.7582 49.6123 84.1461 48.8253C83.8495 48.4473 83.4669 48.1452 83.03 47.9442C82.5932 47.7431 82.1146 47.6488 81.634 47.6691C81.1825 47.6428 80.7303 47.708 80.3046 47.8608C79.879 48.0137 79.4888 48.251 79.1576 48.5585C78.8742 48.8334 78.6493 49.1626 78.4963 49.5262C78.3432 49.8899 78.2651 50.2807 78.2668 50.6752C78.2482 51.0502 78.3066 51.4251 78.4383 51.7769C78.57 52.1286 78.7724 52.4498 79.0329 52.7207C80.0316 53.5184 81.1345 54.1766 82.3111 54.6772C84.2697 55.2666 86.0881 56.2469 87.6559 57.5588C88.238 58.0778 88.6991 58.7178 89.0068 59.4338C89.3146 60.1498 89.4617 60.9244 89.4376 61.7031C89.4591 62.5713 89.279 63.4327 88.9111 64.2196C88.5433 65.0066 87.9978 65.6977 87.3174 66.2388C85.7173 67.4777 83.7281 68.1081 81.7053 68.0176C80.6066 68.08 79.5067 67.9165 78.4739 67.5371C77.4411 67.1577 76.4974 66.5705 75.7012 65.812C75.0223 65.1806 74.4877 64.4104 74.1341 63.554C73.7805 62.6975 73.6162 61.775 73.6524 60.8494V60.7249H77.6076C77.562 61.3337 77.6499 61.9451 77.8653 62.5165C78.0807 63.0879 78.4183 63.6055 78.8547 64.0332C79.6365 64.6869 80.6327 65.029 81.6519 64.9938C82.6053 65.0209 83.5318 64.6764 84.2352 64.0332C84.5297 63.7613 84.7642 63.431 84.9238 63.0635C85.0833 62.696 85.1643 62.2993 85.1617 61.8988Z" fill="#223555"/>
<path d="M102.479 67.9994C101.26 68.0447 100.047 67.8174 98.9282 67.3342C97.8092 66.851 96.8126 66.1242 96.0113 65.2068C94.3727 63.2044 93.518 60.6762 93.6061 58.092V54.748C93.5032 52.1133 94.3432 49.5281 95.9756 47.4553C96.6854 46.5414 97.5999 45.8062 98.6457 45.3089C99.6914 44.8116 100.839 44.5659 101.998 44.5916C103.117 44.5336 104.235 44.7401 105.259 45.1944C106.284 45.6488 107.187 46.3381 107.895 47.2063C109.369 49.243 110.098 51.7231 109.961 54.2322V57.1493H97.8107V58.0564C97.746 59.7551 98.1928 61.4341 99.0935 62.8767C99.485 63.4826 100.027 63.9766 100.668 64.3102C101.308 64.6439 102.024 64.8057 102.746 64.7799C103.777 64.8079 104.803 64.62 105.757 64.2285C106.631 63.8247 107.432 63.2776 108.126 62.6099L109.462 65.2424C108.669 66.1017 107.696 66.7758 106.612 67.2168C105.302 67.7555 103.895 68.0217 102.479 67.9994ZM101.998 47.7933C101.39 47.7975 100.795 47.9649 100.275 48.2779C99.7542 48.5908 99.3278 49.0378 99.04 49.572C98.2548 50.9567 97.832 52.5167 97.8107 54.1077H105.775V53.3606C105.83 51.9804 105.497 50.6124 104.812 49.4119C104.536 48.9112 104.128 48.4956 103.631 48.2103C103.135 47.9249 102.57 47.7807 101.998 47.7933Z" fill="#223555"/>
<path d="M118.638 45.0004L118.869 48.3443C119.417 47.2378 120.231 46.2843 121.239 45.5696C122.199 44.9154 123.337 44.5736 124.499 44.5913C125.389 44.552 126.275 44.7308 127.079 45.1122C127.883 45.4936 128.582 46.0659 129.114 46.7791C130.373 48.8115 130.953 51.1908 130.771 53.5737V67.59H126.495V53.6093C126.623 52.0709 126.308 50.5279 125.586 49.1625C125.287 48.7434 124.887 48.4064 124.423 48.1825C123.959 47.9587 123.446 47.8553 122.932 47.8819C122.095 47.8711 121.281 48.1544 120.633 48.6823C119.93 49.2692 119.375 50.0124 119.012 50.8523V67.59H114.754V45.0004H118.638Z" fill="#223555"/>
<path d="M145.985 59.5691C145.959 57.9872 146.419 56.4352 147.304 55.1224C148.384 53.6225 149.687 52.2968 151.17 51.1914C150.335 50.039 149.63 48.7983 149.067 47.4917C148.612 46.4228 148.376 45.2737 148.373 44.1122C148.249 42.1699 148.888 40.2561 150.154 38.7761C150.815 38.1179 151.607 37.6054 152.478 37.2714C153.35 36.9375 154.282 36.7896 155.214 36.8373C156.079 36.7904 156.944 36.9243 157.754 37.2306C158.564 37.5369 159.301 38.0088 159.918 38.616C160.502 39.2192 160.96 39.9324 161.266 40.7142C161.572 41.4959 161.719 42.3305 161.699 43.1695C161.732 44.4187 161.411 45.6518 160.773 46.7269C160.08 47.8267 159.193 48.7912 158.154 49.5728L155.998 51.3515L162.109 59.5513H162.234C162.681 58.6824 163.022 57.7627 163.249 56.8121C163.499 55.7333 163.618 54.6286 163.605 53.5215H167.062C167.075 55.2112 166.847 56.8942 166.385 58.5197C165.962 59.9862 165.28 61.3656 164.372 62.5929L168.202 67.5911H163.267L161.646 65.4211C160.66 66.2421 159.547 66.897 158.35 67.3599C157.213 67.7987 156.005 68.0277 154.786 68.0358C153.627 68.0928 152.467 67.9158 151.378 67.5155C150.288 67.1151 149.29 66.4996 148.444 65.7057C147.63 64.9091 146.991 63.9521 146.568 62.8957C146.145 61.8392 145.946 60.7063 145.985 59.5691ZM154.893 64.7807C155.771 64.7797 156.641 64.6169 157.459 64.3005C158.327 63.9511 159.133 63.4647 159.846 62.8597L153.165 53.8417L152.684 54.233C151.915 55.0472 151.311 56.0013 150.903 57.0434C150.606 57.8159 150.449 58.635 150.439 59.4624C150.319 60.8084 150.672 62.1543 151.437 63.2688C151.837 63.7755 152.353 64.1778 152.943 64.4412C153.533 64.7045 154.177 64.821 154.822 64.7807H154.893ZM152.381 44.041C152.394 44.7989 152.551 45.5474 152.845 46.2466C153.231 47.1285 153.696 47.9739 154.234 48.7724L156.408 46.9937C157.022 46.5271 157.512 45.9161 157.833 45.215C158.103 44.5671 158.236 43.8709 158.225 43.1695C158.245 42.3305 157.967 41.5115 157.441 40.8571C157.183 40.5433 156.856 40.2933 156.485 40.1266C156.114 39.96 155.71 39.8813 155.303 39.8966C154.873 39.8791 154.446 39.9772 154.067 40.1806C153.688 40.3839 153.37 40.6851 153.147 41.0528C152.592 41.9471 152.324 42.9901 152.381 44.041Z" fill="#223555"/>
<path d="M203.568 67.5557H199.345L187.818 44.9839L187.693 45.0195V67.5557H183.453V37.2109H187.693L199.22 59.7116L199.345 59.676V37.2109H203.568V67.5557Z" fill="#223555"/>
<path d="M209.197 54.856C209.091 52.1965 209.924 49.5841 211.549 47.4744C212.358 46.5672 213.35 45.8412 214.46 45.344C215.57 44.8469 216.773 44.5898 217.99 44.5898C219.206 44.5898 220.409 44.8469 221.519 45.344C222.629 45.8412 223.621 46.5672 224.43 47.4744C226.059 49.5827 226.891 52.1961 226.782 54.856V57.7376C226.916 60.3922 226.101 63.008 224.484 65.1192C223.675 66.0264 222.683 66.7524 221.573 67.2496C220.463 67.7467 219.26 68.0038 218.043 68.0038C216.827 68.0038 215.624 67.7467 214.514 67.2496C213.404 66.7524 212.412 66.0264 211.603 65.1192C209.966 63.0152 209.133 60.3988 209.251 57.7376L209.197 54.856ZM213.438 57.7198C213.366 59.4858 213.76 61.2397 214.578 62.8069C214.923 63.4054 215.42 63.9025 216.019 64.2481C216.618 64.5937 217.298 64.7757 217.99 64.7757C218.682 64.7757 219.361 64.5937 219.96 64.2481C220.559 63.9025 221.056 63.4054 221.402 62.8069C222.22 61.2397 222.613 59.4858 222.542 57.7198V54.8383C222.609 53.084 222.216 51.3425 221.402 49.7867C221.06 49.1836 220.564 48.6819 219.965 48.3328C219.365 47.9838 218.684 47.7998 217.99 47.7998C217.296 47.7998 216.614 47.9838 216.015 48.3328C215.415 48.6819 214.92 49.1836 214.578 49.7867C213.759 51.3411 213.366 53.0836 213.438 54.8383V57.7198Z" fill="#223555"/>
<path d="M235.744 45.0014L235.976 48.0608C236.524 47.0237 237.327 46.1425 238.31 45.4994C239.308 44.8788 240.466 44.5635 241.641 44.5923C242.791 44.563 243.916 44.927 244.83 45.6239C245.811 46.4364 246.52 47.5287 246.861 48.7545C247.359 47.5488 248.163 46.4941 249.195 45.6951C250.187 44.9443 251.407 44.5551 252.652 44.5923C253.548 44.5651 254.437 44.7684 255.233 45.1826C256.028 45.5969 256.704 46.2082 257.195 46.958C258.44 49.1137 259.017 51.5897 258.852 54.0728V67.591H254.611V54.1261C254.737 52.4616 254.443 50.7922 253.756 49.2703C253.505 48.8313 253.138 48.4698 252.695 48.2251C252.252 47.9804 251.75 47.862 251.244 47.8829C250.785 47.8745 250.33 47.9674 249.911 48.155C249.492 48.3425 249.12 48.6201 248.821 48.9679C248.126 49.8147 247.644 50.8147 247.414 51.885C247.414 51.7605 247.414 51.885 247.414 52.4186C247.414 52.9522 247.414 53.219 247.414 53.4147V67.591H243.191V54.1261C243.313 52.4773 243.012 50.8247 242.318 49.3236C242.067 48.8733 241.696 48.5006 241.247 48.2465C240.797 47.9924 240.287 47.8666 239.77 47.8829C238.949 47.8561 238.143 48.1137 237.49 48.6122C236.833 49.1631 236.33 49.8737 236.029 50.6755V67.591H231.807V45.0014H235.744Z" fill="#223555"/>
<path d="M276.293 67.5912C276.137 67.0955 276.012 66.5905 275.919 66.0793C275.819 65.5864 275.753 65.0872 275.723 64.5851C275.127 65.5734 274.325 66.4225 273.372 67.0753C272.444 67.7106 271.343 68.0459 270.218 68.0358C269.388 68.0853 268.556 67.9516 267.784 67.6442C267.011 67.3368 266.315 66.8632 265.746 66.2571C264.611 64.9149 264.031 63.191 264.125 61.4368C264.079 60.481 264.253 59.5274 264.633 58.6488C265.012 57.7702 265.588 56.9899 266.316 56.3675C268.106 55.0579 270.304 54.4274 272.516 54.5888H275.67V52.152C275.741 51.0099 275.414 49.8783 274.743 48.9503C274.427 48.5976 274.042 48.3133 273.612 48.1148C273.181 47.9163 272.715 47.8079 272.241 47.7962C271.767 47.7846 271.295 47.8699 270.855 48.047C270.416 48.224 270.017 48.4891 269.684 48.8258C269.056 49.5428 268.725 50.4711 268.757 51.4227H264.731V51.2982C264.705 50.4132 264.881 49.5341 265.245 48.7268C265.61 47.9196 266.152 47.2054 266.833 46.638C268.379 45.2526 270.405 44.525 272.481 44.6102C274.449 44.5473 276.365 45.2486 277.826 46.5668C278.548 47.3054 279.107 48.1875 279.467 49.1559C279.826 50.1242 279.977 51.1571 279.91 52.1875V62.6463C279.908 63.4968 279.962 64.3464 280.07 65.1899C280.165 65.9978 280.332 66.7955 280.569 67.5734L276.293 67.5912ZM271.18 64.8164C272.153 64.8228 273.102 64.5173 273.888 63.9448C274.67 63.3833 275.286 62.6213 275.67 61.7392V57.1146H272.445C271.882 57.0819 271.318 57.177 270.797 57.3926C270.275 57.6082 269.81 57.9388 269.434 58.3597C268.714 59.207 268.333 60.2904 268.365 61.4012C268.318 62.2846 268.576 63.1574 269.096 63.8737C269.345 64.1801 269.665 64.4224 270.028 64.5802C270.39 64.738 270.785 64.8068 271.18 64.7808V64.8164Z" fill="#223555"/>
<path d="M289.638 45.0004L289.869 48.3443C290.403 47.2446 291.198 46.292 292.186 45.5696C293.145 44.9154 294.284 44.5736 295.446 44.5913C296.336 44.552 297.221 44.7308 298.026 45.1122C298.83 45.4936 299.529 46.0659 300.06 46.7791C301.306 48.8168 301.879 51.1934 301.699 53.5737V67.59H297.53V53.6093C297.653 52.0732 297.345 50.5333 296.64 49.1625C296.332 48.7392 295.923 48.3999 295.45 48.1761C294.977 47.9523 294.454 47.8511 293.932 47.8819C293.095 47.8711 292.282 48.1544 291.633 48.6823C290.925 49.2681 290.364 50.0112 289.994 50.8523V67.59H285.754V45.0004H289.638Z" fill="#223555"/>
<path d="M311.48 45.0019L311.711 48.3459C312.265 47.2382 313.085 46.2848 314.099 45.5711C315.058 44.9169 316.197 44.5752 317.359 44.5928C318.248 44.5551 319.134 44.7346 319.938 45.1159C320.742 45.4971 321.441 46.0686 321.973 46.7806C323.219 48.8184 323.792 51.195 323.612 53.5753V67.5915H319.372V53.6109C319.495 52.0748 319.187 50.5349 318.481 49.1641C318.172 48.7381 317.76 48.3972 317.284 48.1733C316.807 47.9493 316.281 47.8496 315.756 47.8834C314.925 47.8768 314.119 48.1599 313.475 48.6839C312.767 49.2697 312.205 50.0128 311.836 50.8539V67.5915H307.596V45.0019H311.48Z" fill="#223555"/>
<path d="M334 39.132H329.76V35.041H334V39.132ZM334 67.5914H329.76V45.0018H334V67.5914Z" fill="#223555"/>
</g>
<defs>
<clipPath id="clip0">
<rect width="334" height="68" fill="white"/>
</clipPath>
</defs>
</svg>
